<?xml version="1.0" encoding="utf-8"?>

<!DOCTYPE svg PUBLIC "-//W3C//DTD SVG 1.1//EN" "http://www.w3.org/Graphics/SVG/1.1/DTD/svg11.dtd">
<svg height="800px" width="800px" version="1.1" id="_x32_" xmlns="http://www.w3.org/2000/svg" xmlns:xlink="http://www.w3.org/1999/xlink" 
	 viewBox="0 0 512 512"  xml:space="preserve">
<style type="text/css">
	.st0{fill:#000000;}
</style>
<g>
	<path class="st0" d="M417.971,237.867H94.011c0,0-40.29,43.956-94.011,43.956c0,0,22.579,34.408,52.499,43.538v56.581h42.327
		v-56.174h48.785v56.174h42.317v-56.174h48.786v56.174h42.326v-56.174h48.786v56.174h42.327v-56.174h48.785v56.174h42.327v-56.505
		C489.288,316.402,512,281.823,512,281.823C458.271,281.823,417.971,237.867,417.971,237.867z"/>
	<path class="st0" d="M98.292,167.043v54.951h42.355v-54.951h48.701v54.951h42.354v-54.951h48.71v54.951h42.365v-54.951h48.7v54.951
		h42.355v-55.037c24.313-13.477,30.393-43.88,30.393-43.88c-81.811,3.656-119.81-63.049-119.81-63.049
		c9.774-25.648-12.199-39.078-12.199-39.078l-19.539,1.222c15.874,14.651,2.434,30.534,2.434,30.534h-39.068h-0.095H216.87
		c0,0-13.429-15.883,2.444-30.534l-19.539-1.222c0,0-21.982,13.43-12.208,39.078c0,0-37.998,66.705-119.81,63.049
		C67.756,123.077,73.865,153.603,98.292,167.043z"/>
	<polygon class="st0" points="464.512,401.339 47.479,401.339 47.479,442.558 17.171,442.558 17.171,491.05 494.819,491.05 
		494.819,442.558 464.512,442.558 	"/>
</g>
</svg>